<?xml version="1.0" encoding="UTF-8"?>
<svg width="75px" height="30px" viewBox="0 0 75 30" version="1.1" xmlns="http://www.w3.org/2000/svg" xmlns:xlink="http://www.w3.org/1999/xlink">
    <!-- Generator: Sketch 46.2 (44496) - http://www.bohemiancoding.com/sketch -->
    <title>Logo/White</title>
    <desc>Created with Sketch.</desc>
    <defs></defs>
    <g id="Symbols" stroke="none" stroke-width="1" fill="none" fill-rule="evenodd">
        <g id="Topbar/Full" transform="translate(-20.000000, -15.000000)" fill="#FFFFFF">
            <g id="Logo/White" transform="translate(20.000000, 15.000000)">
                <path d="M56.1043285,4.8603352 C54.7711217,4.8603352 53.6903441,3.7723121 53.6903441,2.4301676 C53.6903441,1.08802309 54.7711217,0 56.1043285,0 C57.4375353,0 58.518313,1.08802309 58.518313,2.4301676 C58.518313,3.7723121 57.4375353,4.8603352 56.1043285,4.8603352 Z M42.9522752,9.63687151 C41.9868496,9.63687151 41.2042175,8.84899272 41.2042175,7.87709497 C41.2042175,6.90519723 41.9868496,6.11731844 42.9522752,6.11731844 C43.9177009,6.11731844 44.700333,6.90519723 44.700333,7.87709497 C44.700333,8.84899272 43.9177009,9.63687151 42.9522752,9.63687151 Z M69.173141,9.63687151 C68.2077153,9.63687151 67.4250832,8.84899272 67.4250832,7.87709497 C67.4250832,6.90519723 68.2077153,6.11731844 69.173141,6.11731844 C70.1385666,6.11731844 70.9211987,6.90519723 70.9211987,7.87709497 C70.9211987,8.84899272 70.1385666,9.63687151 69.173141,9.63687151 Z M48.5294118,6.45251397 C47.3800956,6.45251397 46.4483907,5.51456302 46.4483907,4.3575419 C46.4483907,3.20052078 47.3800956,2.26256983 48.5294118,2.26256983 C49.678728,2.26256983 50.6104329,3.20052078 50.6104329,4.3575419 C50.6104329,5.51456302 49.678728,6.45251397 48.5294118,6.45251397 Z M63.6792453,6.45251397 C62.5299291,6.45251397 61.5982242,5.51456302 61.5982242,4.3575419 C61.5982242,3.20052078 62.5299291,2.26256983 63.6792453,2.26256983 C64.8285615,2.26256983 65.7602664,3.20052078 65.7602664,4.3575419 C65.7602664,5.51456302 64.8285615,6.45251397 63.6792453,6.45251397 Z M8.57380688,18.0167598 C10.3218646,18.5195531 11.3207547,19.7765363 11.3207547,21.3687151 C11.3207547,24.0502793 9.572697,25.3910615 5.91009989,25.3910615 L1.3318535,25.3910615 C0.499445061,25.3910615 0,24.8882682 0,24.0502793 L0,12.5698324 C0,11.8156425 0.582685905,11.2290503 1.3318535,11.2290503 L5.91009989,11.2290503 C8.9900111,11.2290503 10.7380688,12.5698324 10.7380688,15 C10.7380688,16.424581 9.98890122,17.5139665 8.57380688,18.0167598 Z M8.74028857,21.2849162 C8.74028857,19.8603352 7.82463929,19.1899441 5.7436182,19.1899441 L2.41398446,19.1899441 L2.41398446,23.4636872 L5.66037736,23.4636872 C7.82463929,23.4636872 8.74028857,22.7932961 8.74028857,21.2849162 Z M2.49722531,17.3463687 L2.49722531,17.4301676 L5.66037736,17.4301676 C7.24195339,17.4301676 8.24084351,16.5921788 8.24084351,15.3351955 C8.24084351,13.9944134 7.40843507,13.3240223 5.66037736,13.3240223 L2.49722531,13.3240223 L2.49722531,17.3463687 Z M17.9800222,14.5810056 C19.145394,14.5810056 19.8113208,15.1675978 19.8945616,16.0055866 C19.8945616,16.8435754 19.3118757,17.2625698 19.145394,17.2625698 L19.0621532,17.2625698 L18.9789123,17.2625698 C18.5627081,17.0111732 18.2297447,16.8435754 17.7302997,16.8435754 C15.8990011,16.8435754 15.4827969,19.0223464 15.4827969,20.7821229 L15.4827969,24.4692737 C15.4827969,25.2234637 15.0665927,25.6424581 14.4006659,25.6424581 L14.1509434,25.6424581 C13.4017758,25.6424581 13.0688124,25.2234637 13.0688124,24.4692737 L13.0688124,15.0837989 C13.0688124,14.9162011 13.6514983,14.7486034 13.9844617,14.7486034 C14.4839068,14.7486034 15.2330744,14.9162011 15.399556,16.1731844 C15.982242,15.0837989 16.8146504,14.5810056 17.9800222,14.5810056 Z M22.5582686,14.7486034 C23.3074362,14.7486034 23.6403996,15.0837989 23.6403996,15.9217877 L23.6403996,24.4692737 C23.6403996,25.2234637 23.3074362,25.6424581 22.5582686,25.6424581 L22.3085461,25.6424581 C21.5593785,25.6424581 21.2264151,25.2234637 21.2264151,24.4692737 L21.2264151,15.9217877 C21.2264151,15.1675978 21.5593785,14.7486034 22.3085461,14.7486034 L22.5582686,14.7486034 Z M34.7946726,10.8938547 C35.5438402,10.8938547 36.2930078,11.2290503 36.3762486,12.8212291 L36.3762486,24.4692737 C36.3762486,25.2234637 36.0432852,25.6424581 35.2941176,25.6424581 L35.0443951,25.6424581 C34.2952275,25.6424581 33.9622642,25.2234637 33.9622642,24.4692737 L33.9622642,24.0502793 C33.1298557,25.2234637 31.9644839,25.8100559 30.4661487,25.8100559 C27.5527192,25.8100559 25.4716981,23.4636872 25.4716981,20.1955307 C25.4716981,16.9273743 27.4694784,14.5810056 30.4661487,14.5810056 C32.0477248,14.5810056 33.2130966,15.2513966 33.8790233,16.0055866 L33.8790233,11.2290503 C33.8790233,11.0614525 34.4617092,10.8938547 34.7946726,10.8938547 Z M30.8823529,23.7988827 C32.6304107,23.7988827 33.9622642,22.4581006 33.9622642,20.7821229 L33.9622642,18.603352 C33.3795782,17.2625698 32.2974473,16.5921788 30.8823529,16.5921788 C29.9667037,16.5921788 29.2175361,16.9273743 28.6348502,17.5977654 C28.1354051,18.2681564 27.8024417,19.1061453 27.8024417,20.1955307 C27.8024417,22.2905028 29.1342952,23.7988827 30.8823529,23.7988827 Z M48.0299667,14.7486034 C48.3629301,14.7486034 48.8623751,14.9162011 48.8623751,15.2513966 L48.8623751,24.8044693 C48.8623751,28.2402235 47.0310766,30 43.4517203,30 C40.3718091,30 38.7069922,28.4078212 38.7069922,27.2346369 C38.7069922,26.396648 39.5394007,25.9776536 39.7891232,25.9776536 C39.872364,25.9776536 39.9556049,26.0614525 39.9556049,26.0614525 C40.7047725,27.3184358 41.8701443,27.9050279 43.4517203,27.9050279 C45.5327414,27.9050279 46.5316315,26.8994413 46.5316315,24.8044693 L46.5316315,23.7988827 C45.6992231,24.8044693 44.5338513,25.3910615 43.0355161,25.3910615 C40.1220866,25.3910615 38.1243063,23.2122905 38.1243063,20.027933 C38.1243063,17.0111732 40.2885683,14.6648045 43.1187569,14.6648045 C44.5338513,14.6648045 45.8657048,15.1675978 46.6148724,16.0893855 C46.7813541,15.1675978 47.2807991,14.7486034 48.0299667,14.7486034 Z M46.5316315,20.6145251 L46.5316315,18.5195531 C45.9489456,17.2625698 44.8668147,16.5921788 43.4517203,16.5921788 C41.6204218,16.5921788 40.3718091,17.9329609 40.3718091,19.9441341 C40.3718091,21.9553073 41.6204218,23.2960894 43.4517203,23.2960894 C45.1165372,23.2960894 46.4483907,22.122905 46.5316315,20.6145251 Z M56.1043285,14.5810056 C59.1842397,14.5810056 61.2652608,16.7597765 61.0987791,19.8603352 L61.0987791,20.027933 C61.0987791,20.5307263 60.9322974,20.7821229 60.3496115,20.7821229 L52.8579356,20.7821229 C53.1076582,22.6256983 54.4395117,23.7988827 56.2708102,23.7988827 C57.7691454,23.7988827 58.7680355,23.2960894 59.4339623,22.122905 C59.4339623,22.0391061 59.5172031,22.0391061 59.5172031,22.0391061 C59.8501665,22.0391061 60.7658158,22.2905028 60.7658158,23.2122905 C60.7658158,24.301676 59.1009989,25.726257 56.2708102,25.726257 C52.9411765,25.726257 50.6936737,23.547486 50.6936737,20.1955307 C50.6936737,17.0111732 53.0244173,14.5810056 56.1043285,14.5810056 Z M56.1043285,16.424581 C54.5227525,16.424581 53.2741398,17.5977654 53.0244173,19.1061453 L58.9345172,19.1061453 C58.7680355,17.4301676 57.6859046,16.424581 56.1043285,16.424581 Z M22.4750277,13.4078212 C21.7394654,13.4078212 21.1431743,12.8075326 21.1431743,12.0670391 C21.1431743,11.3265456 21.7394654,10.726257 22.4750277,10.726257 C23.2105901,10.726257 23.8068812,11.3265456 23.8068812,12.0670391 C23.8068812,12.8075326 23.2105901,13.4078212 22.4750277,13.4078212 Z M69.173141,25.8100559 C65.9267481,25.8100559 63.3462819,23.2122905 63.3462819,19.9441341 L63.3462819,12.5698324 C63.3462819,11.8994413 63.9289678,11.3128492 64.5948946,11.3128492 C65.2608213,11.3128492 65.8435072,11.8994413 65.8435072,12.5698324 L65.8435072,19.9441341 C65.8435072,21.7877095 67.3418424,23.2960894 69.173141,23.2960894 C71.0044395,23.2960894 72.5027747,21.7877095 72.5027747,19.9441341 L72.5027747,12.5698324 C72.5027747,11.8994413 73.0854606,11.3128492 73.7513873,11.3128492 C74.4173141,11.3128492 75,11.8994413 75,12.5698324 L75,19.9441341 C75,23.2122905 72.4195339,25.8100559 69.173141,25.8100559 Z" id="Rectangular-Logo"></path>
            </g>
        </g>
    </g>
</svg>